<svg xmlns="http://www.w3.org/2000/svg" viewBox="0 0 400 400"><g fill="#003"><rect width="400" height="400"/></g><g fill="#0cf" transform="translate(-100 -100)"><path d="M373.3 200V173.3H226.7V200Z"/><path d="M213.3 213.3v80h13.4V200h-13.4Z"/><path d="M373.3 226.7v66.6h13.4V200h-13.4Z"/><path d="M253.3 306.7V293.3H226.7v13.4Z"/><path d="M346.7 293.3v13.4h26.6V293.3Z"/><path d="M440 293.3v40H413.3v13.4H400v26.6H386.7v13.4h26.6V373.3H440V346.7h26.7V293.3Z"/><path d="M253.3 333.3H226.7v13.4h26.6Z"/><path d="M346.7 333.3v13.4h26.6V333.3Z"/><path d="M213.3 413.3h13.4V346.7h-13.4Z"/><path d="M386.7 346.7H373.3v26.6h13.4Z"/><path d="M253.3 413.3h13.4V386.7h-13.4Z"/><path d="M333.3 413.3h13.4V386.7h-13.4Z"/><path d="M373.3 413.3h13.4V386.7h-13.4Z"/></g></svg>