<svg xmlns="http://www.w3.org/2000/svg" viewBox="0 0 400 400"><g fill="#f09" transform="translate(-100 -100)"><path d="M333.3 200v26.7h13.4v66.6h26.6V200Z"/><path d="M333.3 240V226.7H266.7V240Z"/><path d="M253.3 266.7v-40h13.4V200h-40v93.3h26.6Z"/><path d="M266.7 280v13.3h66.6V280Z"/><path d="M333.3 346.7H266.7v26.6H253.3v13.4h93.4V373.3H333.3Z"/></g><g fill="#f09"><rect x="153.3" y="193.3" width="13.3" height="13.33"/><rect x="233.3" y="193.3" width="13.3" height="13.33"/></g><g fill="#c6c"><rect x="153.3" y="153.3" width="13.3" height="13.33"/><rect x="233.3" y="153.3" width="13.3" height="13.33"/></g><g fill="#c9c"><rect x="153.3" y="166.7" width="13.3" height="13.33"/><rect x="233.3" y="166.7" width="13.3" height="13.33"/></g><g><rect x="153.3" y="140" width="13.3" height="13.33"/><rect x="233.3" y="140" width="13.3" height="13.33"/></g></svg>