<svg xmlns="http://www.w3.org/2000/svg" viewBox="0 0 400 400"><g fill="#fc0" transform="translate(-100 -100)"><path d="M173.3 213.3v13.4h40V213.3Z"/><path d="M386.7 213.3v13.4h40V213.3Z"/><path d="M160 240v40h13.3V226.7h-13.3Z"/><path d="M426.7 226.7V280H440V226.7Z"/><path d="M213.3 293.3V280h-40v13.3Z"/><path d="M386.7 280v13.3h40V280Z"/></g><g fill="#633" transform="translate(-100 -100)"><path d="M173.3 226.7V240h40V226.7Z"/><path d="M386.7 226.7V240h40V226.7Z"/></g><g fill="#933" transform="translate(-100 -100)"><path d="M173.3 240v13.3h40V240Z"/><path d="M386.7 240v13.3h40V240Z"/></g><g fill="#c66" transform="translate(-100 -100)"><path d="M173.3 253.3v13.4h40V253.3Z"/><path d="M386.7 253.3v13.4h40V253.3Z"/></g><g fill="#c99" transform="translate(-100 -100)"><path d="M173.3 266.7V280h40V266.7Z"/><path d="M386.7 266.7V280h40V266.7Z"/></g></svg>