<svg xmlns="http://www.w3.org/2000/svg" viewBox="0 0 400 400"><g fill="#ccc" transform="translate(-100 -100)"><path d="M226.7 413.3v13.4h26.6V413.3Z"/><path d="M346.7 413.3v13.4h26.6V413.3Z"/></g><g fill="#966"><rect x="113.3" y="313.3" width="13.3" height="13.33"/><rect x="153.3" y="313.3" width="13.3" height="13.33"/><rect x="233.3" y="313.3" width="13.3" height="13.33"/><rect x="273.3" y="313.3" width="13.3" height="13.33"/></g><g fill="#ccc"><rect x="153.3" y="126.7" width="13.3" height="13.33"/><rect x="233.3" y="126.7" width="13.3" height="13.33"/><rect x="153.3" y="180" width="13.3" height="13.33"/><rect x="233.3" y="180" width="13.3" height="13.33"/></g><g fill="#ccc" transform="translate(-100 -100)"><path d="M333.3 240H266.7v40h66.6Z"/><path d="M266.7 293.3v13.4h66.6V293.3Z"/></g><g fill="#339" transform="translate(-100 -100)"><path d="M333.3 226.7V200H266.7v26.7Z"/><path d="M373.3 373.3V346.7H346.7v-40H253.3v40H226.7v66.6h26.6v-40h13.4V346.7h66.6v26.6h13.4v40h26.6V386.7h13.4V373.3Z"/><path d="M266.7 386.7v26.6h66.6V386.7Z"/></g></svg>